<svg id="visual" viewBox="0 0 900 600" width="900" height="600" xmlns="http://www.w3.org/2000/svg" xmlns:xlink="http://www.w3.org/1999/xlink" version="1.1"><rect x="0" y="0" width="900" height="600" fill="#FF006e"></rect><g transform="translate(443.64242860818206 286.7245544732194)"><path d="M95.8 -141.2C129.6 -127.3 166.2 -110 183.6 -81.2C200.9 -52.3 198.9 -12 188.4 23.6C177.9 59.3 158.9 90.2 135.9 119.1C112.9 147.9 86 174.7 53.6 185.5C21.2 196.4 -16.7 191.3 -54.9 182.2C-93.1 173.2 -131.6 160.3 -153.2 133.7C-174.7 107.1 -179.4 66.8 -182.2 28C-184.9 -10.7 -185.7 -47.9 -170.2 -76C-154.7 -104.1 -123 -123 -91.9 -138.2C-60.8 -153.3 -30.4 -164.7 0.3 -165.1C31 -165.6 62 -155.1 95.8 -141.2" fill="#BB004B"></path></g></svg>