<svg id="visual" viewBox="0 0 900 600" width="900" height="600" xmlns="http://www.w3.org/2000/svg" xmlns:xlink="http://www.w3.org/1999/xlink" version="1.1"><rect width="900" height="600" fill="#931F1F"></rect><g><g transform="translate(128 100)"><path d="M91.3 -31.3C104.3 10.6 91.4 59.2 59.8 82.1C28.3 105 -21.9 102.1 -53.1 78.2C-84.4 54.3 -96.8 9.4 -84.8 -31C-72.8 -71.3 -36.4 -107.2 1.4 -107.6C39.1 -108 78.2 -73.1 91.3 -31.3Z" stroke="#F7760E" fill="none" stroke-width="20"></path></g><g transform="translate(552 176)"><path d="M66 -21.2C74.8 5.6 63.8 39.1 40.9 55.6C18 72.1 -16.7 71.5 -37 55.6C-57.2 39.8 -62.9 8.8 -54.3 -17.8C-45.7 -44.4 -22.9 -66.5 2.9 -67.4C28.6 -68.3 57.2 -48.1 66 -21.2Z" stroke="#F7760E" fill="none" stroke-width="20"></path></g><g transform="translate(853 170)"><path d="M43.5 -15.1C49.6 4.7 43.1 27.6 27.2 39.7C11.3 51.8 -14.1 53.1 -32 40.8C-49.9 28.6 -60.3 2.8 -53.8 -17.7C-47.2 -38.1 -23.6 -53.2 -2.4 -52.4C18.7 -51.6 37.4 -34.9 43.5 -15.1Z" stroke="#F7760E" fill="none" stroke-width="20"></path></g></g></svg>