<svg id="visual" viewBox="0 0 900 600" width="900" height="600" xmlns="http://www.w3.org/2000/svg" xmlns:xlink="http://www.w3.org/1999/xlink" version="1.1"><rect x="0" y="0" width="900" height="600" fill="#001220"></rect><defs><linearGradient id="grad1_0" x1="33.3%" y1="0%" x2="100%" y2="100%"><stop offset="20%" stop-color="#fbae3c" stop-opacity="1"></stop><stop offset="80%" stop-color="#fbae3c" stop-opacity="1"></stop></linearGradient></defs><defs><linearGradient id="grad1_1" x1="33.3%" y1="0%" x2="100%" y2="100%"><stop offset="20%" stop-color="#fbae3c" stop-opacity="1"></stop><stop offset="80%" stop-color="#96446e" stop-opacity="1"></stop></linearGradient></defs><defs><linearGradient id="grad1_2" x1="33.3%" y1="0%" x2="100%" y2="100%"><stop offset="20%" stop-color="#001220" stop-opacity="1"></stop><stop offset="80%" stop-color="#96446e" stop-opacity="1"></stop></linearGradient></defs><defs><linearGradient id="grad2_0" x1="0%" y1="0%" x2="66.7%" y2="100%"><stop offset="20%" stop-color="#fbae3c" stop-opacity="1"></stop><stop offset="80%" stop-color="#fbae3c" stop-opacity="1"></stop></linearGradient></defs><defs><linearGradient id="grad2_1" x1="0%" y1="0%" x2="66.7%" y2="100%"><stop offset="20%" stop-color="#96446e" stop-opacity="1"></stop><stop offset="80%" stop-color="#fbae3c" stop-opacity="1"></stop></linearGradient></defs><defs><linearGradient id="grad2_2" x1="0%" y1="0%" x2="66.7%" y2="100%"><stop offset="20%" stop-color="#96446e" stop-opacity="1"></stop><stop offset="80%" stop-color="#001220" stop-opacity="1"></stop></linearGradient></defs><g transform="translate(900, 0)"><path d="M0 486.7C-72.6 488.6 -145.3 490.5 -186.3 449.7C-227.3 408.9 -236.6 325.3 -277.9 277.9C-319.1 230.5 -392.3 219.4 -432.4 179.1C-472.5 138.8 -479.6 69.4 -486.7 0L0 0Z" fill="#3d3056"></path><path d="M0 324.5C-48.4 325.8 -96.8 327 -124.2 299.8C-151.5 272.6 -157.8 216.8 -185.3 185.3C-212.8 153.7 -261.5 146.2 -288.3 119.4C-315 92.5 -319.7 46.3 -324.5 0L0 0Z" fill="#e1685e"></path><path d="M0 162.2C-24.2 162.9 -48.4 163.5 -62.1 149.9C-75.8 136.3 -78.9 108.4 -92.6 92.6C-106.4 76.8 -130.8 73.1 -144.1 59.7C-157.5 46.3 -159.9 23.1 -162.2 0L0 0Z" fill="#fbae3c"></path></g><g transform="translate(0, 600)"><path d="M0 -486.7C52.5 -456.8 105.1 -426.9 169.5 -409.3C234 -391.6 310.3 -386.2 344.2 -344.2C378.1 -302.1 369.5 -223.4 386.2 -160C402.9 -96.5 444.8 -48.2 486.7 0L0 0Z" fill="#3d3056"></path><path d="M0 -324.5C35 -304.6 70.1 -284.6 113 -272.9C156 -261.1 206.9 -257.5 229.5 -229.5C252 -201.4 246.3 -149 257.5 -106.6C268.6 -64.3 296.5 -32.2 324.5 0L0 0Z" fill="#e1685e"></path><path d="M0 -162.2C17.5 -152.3 35 -142.3 56.5 -136.4C78 -130.5 103.4 -128.7 114.7 -114.7C126 -100.7 123.2 -74.5 128.7 -53.3C134.3 -32.2 148.3 -16.1 162.2 0L0 0Z" fill="#fbae3c"></path></g></svg>