<svg id="visual" viewBox="0 0 900 600" width="900" height="600" xmlns="http://www.w3.org/2000/svg" xmlns:xlink="http://www.w3.org/1999/xlink" version="1.1"><rect x="0" y="0" width="900" height="600" fill="#001220"></rect><path d="M0 410L21.5 415.3C43 420.7 86 431.3 128.8 424.2C171.7 417 214.3 392 257.2 377.8C300 363.7 343 360.3 385.8 372.3C428.7 384.3 471.3 411.7 514.2 411.7C557 411.7 600 384.3 642.8 375C685.7 365.7 728.3 374.3 771.2 376C814 377.7 857 372.3 878.5 369.7L900 367L900 601L878.5 601C857 601 814 601 771.2 601C728.3 601 685.7 601 642.8 601C600 601 557 601 514.2 601C471.3 601 428.7 601 385.8 601C343 601 300 601 257.2 601C214.3 601 171.7 601 128.8 601C86 601 43 601 21.5 601L0 601Z" fill="#fa7268"></path><path d="M0 416L21.5 418C43 420 86 424 128.8 426.3C171.7 428.7 214.3 429.3 257.2 429.7C300 430 343 430 385.8 435.2C428.7 440.3 471.3 450.7 514.2 448C557 445.3 600 429.7 642.8 423.5C685.7 417.3 728.3 420.7 771.2 422.3C814 424 857 424 878.5 424L900 424L900 601L878.5 601C857 601 814 601 771.2 601C728.3 601 685.7 601 642.8 601C600 601 557 601 514.2 601C471.3 601 428.7 601 385.8 601C343 601 300 601 257.2 601C214.3 601 171.7 601 128.8 601C86 601 43 601 21.5 601L0 601Z" fill="#ef5f67"></path><path d="M0 441L21.5 447.3C43 453.7 86 466.3 128.8 474.3C171.7 482.3 214.3 485.7 257.2 484.2C300 482.7 343 476.3 385.8 468.8C428.7 461.3 471.3 452.7 514.2 452.7C557 452.7 600 461.3 642.8 462C685.7 462.7 728.3 455.3 771.2 457.3C814 459.3 857 470.7 878.5 476.3L900 482L900 601L878.5 601C857 601 814 601 771.2 601C728.3 601 685.7 601 642.8 601C600 601 557 601 514.2 601C471.3 601 428.7 601 385.8 601C343 601 300 601 257.2 601C214.3 601 171.7 601 128.8 601C86 601 43 601 21.5 601L0 601Z" fill="#e34c67"></path><path d="M0 504L21.5 502.2C43 500.3 86 496.7 128.8 501.3C171.7 506 214.3 519 257.2 519.8C300 520.7 343 509.3 385.8 510C428.7 510.7 471.3 523.3 514.2 521C557 518.7 600 501.3 642.8 495.5C685.7 489.7 728.3 495.3 771.2 505C814 514.7 857 528.3 878.5 535.2L900 542L900 601L878.5 601C857 601 814 601 771.2 601C728.3 601 685.7 601 642.8 601C600 601 557 601 514.2 601C471.3 601 428.7 601 385.8 601C343 601 300 601 257.2 601C214.3 601 171.7 601 128.8 601C86 601 43 601 21.5 601L0 601Z" fill="#d53867"></path><path d="M0 535L21.5 541.2C43 547.3 86 559.7 128.8 558.8C171.7 558 214.3 544 257.2 537.5C300 531 343 532 385.8 535.5C428.7 539 471.3 545 514.2 551C557 557 600 563 642.8 564.7C685.7 566.3 728.3 563.7 771.2 556.7C814 549.7 857 538.3 878.5 532.7L900 527L900 601L878.5 601C857 601 814 601 771.2 601C728.3 601 685.7 601 642.8 601C600 601 557 601 514.2 601C471.3 601 428.7 601 385.8 601C343 601 300 601 257.2 601C214.3 601 171.7 601 128.8 601C86 601 43 601 21.5 601L0 601Z" fill="#c62368"></path></svg>