<svg id="visual" viewBox="0 0 900 600" width="900" height="600" xmlns="http://www.w3.org/2000/svg" xmlns:xlink="http://www.w3.org/1999/xlink" version="1.1"><rect x="0" y="0" width="900" height="600" fill="#140021"></rect><path d="M0 258L129 258L129 272L257 272L257 249L386 249L386 347L514 347L514 315L643 315L643 332L771 332L771 272L900 272L900 291L900 601L900 601L771 601L771 601L643 601L643 601L514 601L514 601L386 601L386 601L257 601L257 601L129 601L129 601L0 601Z" fill="#9900ff"></path><path d="M0 373L129 373L129 410L257 410L257 421L386 421L386 374L514 374L514 412L643 412L643 384L771 384L771 453L900 453L900 452L900 601L900 601L771 601L771 601L643 601L643 601L514 601L514 601L386 601L386 601L257 601L257 601L129 601L129 601L0 601Z" fill="#7700c6"></path><path d="M0 508L129 508L129 498L257 498L257 488L386 488L386 496L514 496L514 442L643 442L643 486L771 486L771 466L900 466L900 445L900 601L900 601L771 601L771 601L643 601L643 601L514 601L514 601L386 601L386 601L257 601L257 601L129 601L129 601L0 601Z" fill="#560090"></path></svg>