<svg id="visual" viewBox="0 0 900 600" width="900" height="600" xmlns="http://www.w3.org/2000/svg" xmlns:xlink="http://www.w3.org/1999/xlink" version="1.1"><rect x="0" y="0" width="900" height="600" fill="#001220"></rect><path d="M0 334L21.5 341.5C43 349 86 364 128.8 354C171.7 344 214.3 309 257.2 289.2C300 269.3 343 264.7 385.8 281.5C428.7 298.3 471.3 336.7 514.2 336.7C557 336.7 600 298.3 642.8 285.2C685.7 272 728.3 284 771.2 286.3C814 288.7 857 281.3 878.5 277.7L900 274L900 601L878.5 601C857 601 814 601 771.2 601C728.3 601 685.7 601 642.8 601C600 601 557 601 514.2 601C471.3 601 428.7 601 385.8 601C343 601 300 601 257.2 601C214.3 601 171.7 601 128.8 601C86 601 43 601 21.5 601L0 601Z" fill="#fa7268"></path><path d="M0 343L21.5 345.8C43 348.7 86 354.3 128.8 357.5C171.7 360.7 214.3 361.3 257.2 361.7C300 362 343 362 385.8 369.3C428.7 376.7 471.3 391.3 514.2 387.7C557 384 600 362 642.8 353.3C685.7 344.7 728.3 349.3 771.2 351.8C814 354.3 857 354.7 878.5 354.8L900 355L900 601L878.5 601C857 601 814 601 771.2 601C728.3 601 685.7 601 642.8 601C600 601 557 601 514.2 601C471.3 601 428.7 601 385.8 601C343 601 300 601 257.2 601C214.3 601 171.7 601 128.8 601C86 601 43 601 21.5 601L0 601Z" fill="#ef5f67"></path><path d="M0 378L21.5 386.8C43 395.7 86 413.3 128.8 424.3C171.7 435.3 214.3 439.7 257.2 437.5C300 435.3 343 426.7 385.8 416.3C428.7 406 471.3 394 514.2 394C557 394 600 406 642.8 407C685.7 408 728.3 398 771.2 401C814 404 857 420 878.5 428L900 436L900 601L878.5 601C857 601 814 601 771.2 601C728.3 601 685.7 601 642.8 601C600 601 557 601 514.2 601C471.3 601 428.7 601 385.8 601C343 601 300 601 257.2 601C214.3 601 171.7 601 128.8 601C86 601 43 601 21.5 601L0 601Z" fill="#e34c67"></path><path d="M0 466L21.5 463.3C43 460.7 86 455.3 128.8 461.8C171.7 468.3 214.3 486.7 257.2 488C300 489.3 343 473.7 385.8 474.7C428.7 475.7 471.3 493.3 514.2 490C557 486.7 600 462.3 642.8 454C685.7 445.7 728.3 453.3 771.2 467C814 480.7 857 500.3 878.5 510.2L900 520L900 601L878.5 601C857 601 814 601 771.2 601C728.3 601 685.7 601 642.8 601C600 601 557 601 514.2 601C471.3 601 428.7 601 385.8 601C343 601 300 601 257.2 601C214.3 601 171.7 601 128.8 601C86 601 43 601 21.5 601L0 601Z" fill="#d53867"></path><path d="M0 509L21.5 517.7C43 526.3 86 543.7 128.8 542.5C171.7 541.3 214.3 521.7 257.2 512.5C300 503.3 343 504.7 385.8 509.7C428.7 514.7 471.3 523.3 514.2 531.8C557 540.3 600 548.7 642.8 551C685.7 553.3 728.3 549.7 771.2 539.8C814 530 857 514 878.5 506L900 498L900 601L878.5 601C857 601 814 601 771.2 601C728.3 601 685.7 601 642.8 601C600 601 557 601 514.2 601C471.3 601 428.7 601 385.8 601C343 601 300 601 257.2 601C214.3 601 171.7 601 128.8 601C86 601 43 601 21.5 601L0 601Z" fill="#c62368"></path></svg>