<svg id="visual" viewBox="0 0 900 600" width="900" height="600" xmlns="http://www.w3.org/2000/svg" xmlns:xlink="http://www.w3.org/1999/xlink" version="1.1"><g stroke-width="1" stroke-linejoin="bevel"><path d="M514 273L493 390L588 313Z" fill="#0c2435" stroke="#0c2435"></path><path d="M493 390L619 379L588 313Z" fill="#1d4e6b" stroke="#1d4e6b"></path><path d="M493 390L568 485L619 379Z" fill="#00101c" stroke="#00101c"></path><path d="M506 473L568 485L493 390Z" fill="#0c2435" stroke="#0c2435"></path><path d="M514 273L385 274L493 390Z" fill="#19435d" stroke="#19435d"></path><path d="M493 390L362 479L506 473Z" fill="#112e42" stroke="#112e42"></path><path d="M568 485L676 398L619 379Z" fill="#246688" stroke="#246688"></path><path d="M619 379L722 324L588 313Z" fill="#297ea6" stroke="#297ea6"></path><path d="M385 274L371 389L493 390Z" fill="#19435d" stroke="#19435d"></path><path d="M579 165L483 172L514 273Z" fill="#112e42" stroke="#112e42"></path><path d="M514 273L394 198L385 274Z" fill="#081a28" stroke="#081a28"></path><path d="M579 165L514 273L588 313Z" fill="#246688" stroke="#246688"></path><path d="M670 167L579 165L588 313Z" fill="#15384f" stroke="#15384f"></path><path d="M483 172L394 198L514 273Z" fill="#00101c" stroke="#00101c"></path><path d="M385 274L331 276L371 389Z" fill="#246688" stroke="#246688"></path><path d="M676 398L722 324L619 379Z" fill="#00101c" stroke="#00101c"></path><path d="M394 198L331 276L385 274Z" fill="#081a28" stroke="#081a28"></path><path d="M579 165L508 130L483 172Z" fill="#246688" stroke="#246688"></path><path d="M371 72L332 130L394 198Z" fill="#15384f" stroke="#15384f"></path><path d="M371 389L362 479L493 390Z" fill="#112e42" stroke="#112e42"></path><path d="M631 600L667 539L568 485Z" fill="#112e42" stroke="#112e42"></path><path d="M262 410L362 479L371 389Z" fill="#1d4e6b" stroke="#1d4e6b"></path><path d="M722 324L670 167L588 313Z" fill="#297ea6" stroke="#297ea6"></path><path d="M579 165L600 74L508 130Z" fill="#00101c" stroke="#00101c"></path><path d="M836 378L763 309L722 324Z" fill="#112e42" stroke="#112e42"></path><path d="M722 324L763 309L670 167Z" fill="#19435d" stroke="#19435d"></path><path d="M568 485L667 539L676 398Z" fill="#0c2435" stroke="#0c2435"></path><path d="M676 398L836 378L722 324Z" fill="#277297" stroke="#277297"></path><path d="M494 600L568 485L506 473Z" fill="#081a28" stroke="#081a28"></path><path d="M394 198L326 177L331 276Z" fill="#277297" stroke="#277297"></path><path d="M332 130L326 177L394 198Z" fill="#297ea6" stroke="#297ea6"></path><path d="M389 600L494 600L506 473Z" fill="#277297" stroke="#277297"></path><path d="M670 167L600 74L579 165Z" fill="#00101c" stroke="#00101c"></path><path d="M371 72L394 198L483 172Z" fill="#15384f" stroke="#15384f"></path><path d="M237 260L262 410L331 276Z" fill="#277297" stroke="#277297"></path><path d="M331 276L262 410L371 389Z" fill="#1d4e6b" stroke="#1d4e6b"></path><path d="M362 479L389 600L506 473Z" fill="#297ea6" stroke="#297ea6"></path><path d="M494 600L631 600L568 485Z" fill="#205a7a" stroke="#205a7a"></path><path d="M371 72L483 172L508 130Z" fill="#112e42" stroke="#112e42"></path><path d="M326 177L237 260L331 276Z" fill="#205a7a" stroke="#205a7a"></path><path d="M770 118L670 77L670 167Z" fill="#081a28" stroke="#081a28"></path><path d="M670 167L670 77L600 74Z" fill="#277297" stroke="#277297"></path><path d="M269 517L389 600L362 479Z" fill="#205a7a" stroke="#205a7a"></path><path d="M196 223L237 260L326 177Z" fill="#19435d" stroke="#19435d"></path><path d="M726 600L787 490L667 539Z" fill="#081a28" stroke="#081a28"></path><path d="M667 539L787 490L676 398Z" fill="#15384f" stroke="#15384f"></path><path d="M763 309L798 196L670 167Z" fill="#081a28" stroke="#081a28"></path><path d="M900 330L798 196L763 309Z" fill="#1d4e6b" stroke="#1d4e6b"></path><path d="M428 0L371 72L508 130Z" fill="#0c2435" stroke="#0c2435"></path><path d="M183 131L196 223L326 177Z" fill="#297ea6" stroke="#297ea6"></path><path d="M787 490L836 378L676 398Z" fill="#19435d" stroke="#19435d"></path><path d="M160 499L269 517L262 410Z" fill="#297ea6" stroke="#297ea6"></path><path d="M262 410L269 517L362 479Z" fill="#205a7a" stroke="#205a7a"></path><path d="M798 196L770 118L670 167Z" fill="#00101c" stroke="#00101c"></path><path d="M631 600L726 600L667 539Z" fill="#15384f" stroke="#15384f"></path><path d="M615 0L524 0L600 74Z" fill="#297ea6" stroke="#297ea6"></path><path d="M600 74L524 0L508 130Z" fill="#19435d" stroke="#19435d"></path><path d="M615 0L600 74L670 77Z" fill="#1d4e6b" stroke="#1d4e6b"></path><path d="M696 0L615 0L670 77Z" fill="#1d4e6b" stroke="#1d4e6b"></path><path d="M524 0L428 0L508 130Z" fill="#205a7a" stroke="#205a7a"></path><path d="M183 131L326 177L332 130Z" fill="#297ea6" stroke="#297ea6"></path><path d="M237 260L170 370L262 410Z" fill="#00101c" stroke="#00101c"></path><path d="M183 131L332 130L275 0Z" fill="#246688" stroke="#246688"></path><path d="M196 223L170 370L237 260Z" fill="#00101c" stroke="#00101c"></path><path d="M269 517L281 600L389 600Z" fill="#00101c" stroke="#00101c"></path><path d="M219 600L281 600L269 517Z" fill="#297ea6" stroke="#297ea6"></path><path d="M726 600L789 600L787 490Z" fill="#297ea6" stroke="#297ea6"></path><path d="M900 378L900 330L836 378Z" fill="#1d4e6b" stroke="#1d4e6b"></path><path d="M900 378L836 378L900 503Z" fill="#081a28" stroke="#081a28"></path><path d="M836 378L900 330L763 309Z" fill="#277297" stroke="#277297"></path><path d="M798 196L900 95L770 118Z" fill="#15384f" stroke="#15384f"></path><path d="M900 503L836 378L787 490Z" fill="#277297" stroke="#277297"></path><path d="M770 118L696 0L670 77Z" fill="#297ea6" stroke="#297ea6"></path><path d="M900 330L900 200L798 196Z" fill="#1d4e6b" stroke="#1d4e6b"></path><path d="M770 118L799 0L696 0Z" fill="#277297" stroke="#277297"></path><path d="M275 0L332 130L371 72Z" fill="#1d4e6b" stroke="#1d4e6b"></path><path d="M196 223L128 228L170 370Z" fill="#277297" stroke="#277297"></path><path d="M112 488L160 499L170 370Z" fill="#00101c" stroke="#00101c"></path><path d="M170 370L160 499L262 410Z" fill="#246688" stroke="#246688"></path><path d="M160 499L219 600L269 517Z" fill="#0c2435" stroke="#0c2435"></path><path d="M789 600L900 503L787 490Z" fill="#246688" stroke="#246688"></path><path d="M183 131L128 228L196 223Z" fill="#297ea6" stroke="#297ea6"></path><path d="M428 0L275 0L371 72Z" fill="#081a28" stroke="#081a28"></path><path d="M900 95L799 0L770 118Z" fill="#00101c" stroke="#00101c"></path><path d="M82 370L112 488L170 370Z" fill="#246688" stroke="#246688"></path><path d="M160 499L107 600L219 600Z" fill="#205a7a" stroke="#205a7a"></path><path d="M900 200L900 95L798 196Z" fill="#1d4e6b" stroke="#1d4e6b"></path><path d="M76 282L82 370L170 370Z" fill="#15384f" stroke="#15384f"></path><path d="M0 237L76 282L128 228Z" fill="#081a28" stroke="#081a28"></path><path d="M128 228L76 282L170 370Z" fill="#15384f" stroke="#15384f"></path><path d="M105 83L128 228L183 131Z" fill="#205a7a" stroke="#205a7a"></path><path d="M789 600L900 600L900 503Z" fill="#081a28" stroke="#081a28"></path><path d="M275 0L191 0L183 131Z" fill="#15384f" stroke="#15384f"></path><path d="M191 0L105 83L183 131Z" fill="#297ea6" stroke="#297ea6"></path><path d="M0 518L107 600L112 488Z" fill="#277297" stroke="#277297"></path><path d="M112 488L107 600L160 499Z" fill="#277297" stroke="#277297"></path><path d="M900 95L900 0L799 0Z" fill="#081a28" stroke="#081a28"></path><path d="M0 237L0 324L76 282Z" fill="#0c2435" stroke="#0c2435"></path><path d="M76 282L0 324L82 370Z" fill="#0c2435" stroke="#0c2435"></path><path d="M82 370L0 396L112 488Z" fill="#1d4e6b" stroke="#1d4e6b"></path><path d="M0 324L0 396L82 370Z" fill="#277297" stroke="#277297"></path><path d="M0 94L0 237L128 228Z" fill="#081a28" stroke="#081a28"></path><path d="M191 0L101 0L105 83Z" fill="#081a28" stroke="#081a28"></path><path d="M105 83L0 94L128 228Z" fill="#112e42" stroke="#112e42"></path><path d="M0 396L0 518L112 488Z" fill="#112e42" stroke="#112e42"></path><path d="M0 0L0 94L105 83Z" fill="#081a28" stroke="#081a28"></path><path d="M0 518L0 600L107 600Z" fill="#205a7a" stroke="#205a7a"></path><path d="M101 0L0 0L105 83Z" fill="#112e42" stroke="#112e42"></path></g></svg>