<svg id="visual" viewBox="0 0 900 600" width="900" height="600" xmlns="http://www.w3.org/2000/svg" xmlns:xlink="http://www.w3.org/1999/xlink" version="1.1"><path d="M0 193L82 193L82 139L164 139L164 121L245 121L245 121L327 121L327 211L409 211L409 121L491 121L491 205L573 205L573 259L655 259L655 127L736 127L736 181L818 181L818 169L900 169L900 193L900 0L900 0L818 0L818 0L736 0L736 0L655 0L655 0L573 0L573 0L491 0L491 0L409 0L409 0L327 0L327 0L245 0L245 0L164 0L164 0L82 0L82 0L0 0Z" fill="#fa7268"></path><path d="M0 289L82 289L82 205L164 205L164 169L245 169L245 217L327 217L327 313L409 313L409 265L491 265L491 301L573 301L573 319L655 319L655 283L736 283L736 337L818 337L818 241L900 241L900 259L900 191L900 167L818 167L818 179L736 179L736 125L655 125L655 257L573 257L573 203L491 203L491 119L409 119L409 209L327 209L327 119L245 119L245 119L164 119L164 137L82 137L82 191L0 191Z" fill="#ea5e66"></path><path d="M0 367L82 367L82 295L164 295L164 265L245 265L245 337L327 337L327 379L409 379L409 385L491 385L491 379L573 379L573 427L655 427L655 331L736 331L736 397L818 397L818 295L900 295L900 319L900 257L900 239L818 239L818 335L736 335L736 281L655 281L655 317L573 317L573 299L491 299L491 263L409 263L409 311L327 311L327 215L245 215L245 167L164 167L164 203L82 203L82 287L0 287Z" fill="#d84a64"></path><path d="M0 409L82 409L82 337L164 337L164 367L245 367L245 397L327 397L327 463L409 463L409 463L491 463L491 415L573 415L573 475L655 475L655 403L736 403L736 433L818 433L818 355L900 355L900 403L900 317L900 293L818 293L818 395L736 395L736 329L655 329L655 425L573 425L573 377L491 377L491 383L409 383L409 377L327 377L327 335L245 335L245 263L164 263L164 293L82 293L82 365L0 365Z" fill="#c53762"></path><path d="M0 601L82 601L82 601L164 601L164 601L245 601L245 601L327 601L327 601L409 601L409 601L491 601L491 601L573 601L573 601L655 601L655 601L736 601L736 601L818 601L818 601L900 601L900 601L900 401L900 353L818 353L818 431L736 431L736 401L655 401L655 473L573 473L573 413L491 413L491 461L409 461L409 461L327 461L327 395L245 395L245 365L164 365L164 335L82 335L82 407L0 407Z" fill="#b0235f"></path></svg>