<svg id="visual" viewBox="0 0 900 600" width="900" height="600" xmlns="http://www.w3.org/2000/svg" xmlns:xlink="http://www.w3.org/1999/xlink" version="1.1"><path d="M0 79L13.7 78C27.3 77 54.7 75 82 72C109.3 69 136.7 65 163.8 72C191 79 218 97 245.2 106C272.3 115 299.7 115 327 116C354.3 117 381.7 119 409 121C436.3 123 463.7 125 491 114C518.3 103 545.7 79 573 76C600.3 73 627.7 91 654.8 94C682 97 709 85 736.2 79C763.3 73 790.7 73 818 74C845.3 75 872.7 77 886.3 78L900 79L900 0L886.3 0C872.7 0 845.3 0 818 0C790.7 0 763.3 0 736.2 0C709 0 682 0 654.8 0C627.7 0 600.3 0 573 0C545.7 0 518.3 0 491 0C463.7 0 436.3 0 409 0C381.7 0 354.3 0 327 0C299.7 0 272.3 0 245.2 0C218 0 191 0 163.8 0C136.7 0 109.3 0 82 0C54.7 0 27.3 0 13.7 0L0 0Z" fill="#6198ff"></path><path d="M0 187L13.7 211C27.3 235 54.7 283 82 302C109.3 321 136.7 311 163.8 293C191 275 218 249 245.2 256C272.3 263 299.7 303 327 302C354.3 301 381.7 259 409 257C436.3 255 463.7 293 491 286C518.3 279 545.7 227 573 207C600.3 187 627.7 199 654.8 210C682 221 709 231 736.2 241C763.3 251 790.7 261 818 259C845.3 257 872.7 243 886.3 236L900 229L900 77L886.3 76C872.7 75 845.3 73 818 72C790.7 71 763.3 71 736.2 77C709 83 682 95 654.8 92C627.7 89 600.3 71 573 74C545.7 77 518.3 101 491 112C463.7 123 436.3 121 409 119C381.7 117 354.3 115 327 114C299.7 113 272.3 113 245.2 104C218 95 191 77 163.8 70C136.7 63 109.3 67 82 70C54.7 73 27.3 75 13.7 76L0 77Z" fill="#3c80ff"></path><path d="M0 271L13.7 296C27.3 321 54.7 371 82 391C109.3 411 136.7 401 163.8 385C191 369 218 347 245.2 356C272.3 365 299.7 405 327 396C354.3 387 381.7 329 409 317C436.3 305 463.7 339 491 331C518.3 323 545.7 273 573 262C600.3 251 627.7 279 654.8 296C682 313 709 319 736.2 329C763.3 339 790.7 353 818 350C845.3 347 872.7 327 886.3 317L900 307L900 227L886.3 234C872.7 241 845.3 255 818 257C790.7 259 763.3 249 736.2 239C709 229 682 219 654.8 208C627.7 197 600.3 185 573 205C545.7 225 518.3 277 491 284C463.7 291 436.3 253 409 255C381.7 257 354.3 299 327 300C299.7 301 272.3 261 245.2 254C218 247 191 273 163.8 291C136.7 309 109.3 319 82 300C54.7 281 27.3 233 13.7 209L0 185Z" fill="#0066ff"></path><path d="M0 367L13.7 390C27.3 413 54.7 459 82 479C109.3 499 136.7 493 163.8 474C191 455 218 423 245.2 424C272.3 425 299.7 459 327 452C354.3 445 381.7 397 409 401C436.3 405 463.7 461 491 469C518.3 477 545.7 437 573 419C600.3 401 627.7 405 654.8 402C682 399 709 389 736.2 402C763.3 415 790.7 451 818 464C845.3 477 872.7 467 886.3 462L900 457L900 305L886.3 315C872.7 325 845.3 345 818 348C790.7 351 763.3 337 736.2 327C709 317 682 311 654.8 294C627.7 277 600.3 249 573 260C545.7 271 518.3 321 491 329C463.7 337 436.3 303 409 315C381.7 327 354.3 385 327 394C299.7 403 272.3 363 245.2 354C218 345 191 367 163.8 383C136.7 399 109.3 409 82 389C54.7 369 27.3 319 13.7 294L0 269Z" fill="#0059dd"></path><path d="M0 601L13.7 601C27.3 601 54.7 601 82 601C109.3 601 136.7 601 163.8 601C191 601 218 601 245.2 601C272.3 601 299.7 601 327 601C354.3 601 381.7 601 409 601C436.3 601 463.7 601 491 601C518.3 601 545.7 601 573 601C600.3 601 627.7 601 654.8 601C682 601 709 601 736.2 601C763.3 601 790.7 601 818 601C845.3 601 872.7 601 886.3 601L900 601L900 455L886.3 460C872.7 465 845.3 475 818 462C790.7 449 763.3 413 736.2 400C709 387 682 397 654.8 400C627.7 403 600.3 399 573 417C545.7 435 518.3 475 491 467C463.7 459 436.3 403 409 399C381.7 395 354.3 443 327 450C299.7 457 272.3 423 245.2 422C218 421 191 453 163.8 472C136.7 491 109.3 497 82 477C54.7 457 27.3 411 13.7 388L0 365Z" fill="#004cbb"></path></svg>