<svg id="visual" viewBox="0 0 900 600" width="900" height="600" xmlns="http://www.w3.org/2000/svg" xmlns:xlink="http://www.w3.org/1999/xlink" version="1.1"><path d="M0 37L82 103L164 43L245 55L327 91L409 85L491 103L573 79L655 61L736 103L818 85L900 49L900 0L818 0L736 0L655 0L573 0L491 0L409 0L327 0L245 0L164 0L82 0L0 0Z" fill="#00cc8e"></path><path d="M0 253L82 223L164 241L245 205L327 187L409 235L491 247L573 289L655 217L736 331L818 169L900 241L900 47L818 83L736 101L655 59L573 77L491 101L409 83L327 89L245 53L164 41L82 101L0 35Z" fill="#00b98a"></path><path d="M0 319L82 355L164 403L245 361L327 247L409 343L491 349L573 349L655 343L736 427L818 259L900 307L900 239L818 167L736 329L655 215L573 287L491 245L409 233L327 185L245 203L164 239L82 221L0 251Z" fill="#00a784"></path><path d="M0 547L82 565L164 541L245 493L327 499L409 517L491 529L573 535L655 505L736 523L818 505L900 469L900 305L818 257L736 425L655 341L573 347L491 347L409 341L327 245L245 359L164 401L82 353L0 317Z" fill="#00957c"></path><path d="M0 601L82 601L164 601L245 601L327 601L409 601L491 601L573 601L655 601L736 601L818 601L900 601L900 467L818 503L736 521L655 503L573 533L491 527L409 515L327 497L245 491L164 539L82 563L0 545Z" fill="#038373"></path></svg>